<svg xmlns="http://www.w3.org/2000/svg" viewBox="0 0 32 32" width="32" height="32">
  <defs>
    <linearGradient id="darkBg" x1="0" y1="0" x2="1" y2="1">
      <stop offset="0" stop-color="#232633"/>
      <stop offset="1" stop-color="#0D0E12"/>
    </linearGradient>
  </defs>
  <style>
    @media (prefers-color-scheme: dark) {
      .tile { fill: url(#darkBg); }
      .bubble { stroke: #FFFFFF; }
    }
  </style>
  <rect class="tile" width="32" height="32" rx="7" fill="#FFFFFF"/>
  <g transform="translate(5.5 5.5) scale(0.656)" fill="none">
    <path class="bubble" d="M8 4 H24 Q29 4 29 9 V19 Q29 24 24 24 H14 L8 29 L8 24 Q3 24 3 19 V9 Q3 4 8 4 Z" stroke="#000000" stroke-width="2" stroke-linejoin="round"/>
    <path d="M8.2 6.6 H11.6 M8.5 6.6 V8.2 Q7 8.8 7 10.3 V18.6 Q7 19.6 8.1 19.6 H11.7 Q12.8 19.6 12.8 18.6 V10.3 Q12.8 8.8 11.3 8.2 V6.6" stroke="#5589f9" fill="#5589f9" stroke-width="1.5" stroke-linecap="round" stroke-linejoin="round"/>
    <path d="M19.8 9.8 Q17 9.8 17 14.2 Q17 19.6 19.8 19.6 Q20.7 19.6 21.3 19 Q21.9 19.6 22.8 19.6 Q25.6 19.6 25.6 14.2 Q25.6 9.8 22.8 9.8 Q21.8 9.8 21.3 10.4 Q20.8 9.8 19.8 9.8 Z" stroke="#E03131" fill="#E03131" stroke-width="1.5" stroke-linecap="round" stroke-linejoin="round"/>
    <path d="M21.3 10 V7.4 Q21.3 6.2 23 6.1" stroke="#2F9E44" stroke-width="1.5" stroke-linecap="round" stroke-linejoin="round"/>
  </g>
</svg>
